<?xml version="1.0" encoding="UTF-8" standalone="no"?><svg xmlns="http://www.w3.org/2000/svg" xmlns:xlink="http://www.w3.org/1999/xlink" contentScriptType="application/ecmascript" contentStyleType="text/css" height="832px" preserveAspectRatio="none" style="width:1040px;height:832px;" version="1.1" viewBox="0 0 1040 832" width="1040px" zoomAndPan="magnify"><defs/><g><!--class User--><rect fill="#F8F8F8" height="129.6016" id="User" style="stroke: #383838; stroke-width: 1.5;" width="165" x="608" y="526"/><text fill="#000000" font-family="sans-serif" font-size="12" lengthAdjust="spacingAndGlyphs" textLength="29" x="676" y="542.1387">User</text><line style="stroke: #383838; stroke-width: 1.5;" x1="609" x2="772" y1="549.9688" y2="549.9688"/><text fill="#000000" font-family="sans-serif" font-size="11" lengthAdjust="spacingAndGlyphs" textLength="108" x="614" y="564.1792">-username : String</text><text fill="#000000" font-family="sans-serif" font-size="11" lengthAdjust="spacingAndGlyphs" textLength="106" x="614" y="576.9839">-password : String</text><text fill="#000000" font-family="sans-serif" font-size="11" lengthAdjust="spacingAndGlyphs" textLength="105" x="614" y="589.7886">-firstname : String</text><text fill="#000000" font-family="sans-serif" font-size="11" lengthAdjust="spacingAndGlyphs" textLength="103" x="614" y="602.5933">-lastname : String</text><text fill="#000000" font-family="sans-serif" font-size="11" lengthAdjust="spacingAndGlyphs" textLength="153" x="614" y="615.3979">-businessNumber : Integer</text><text fill="#000000" font-family="sans-serif" font-size="11" lengthAdjust="spacingAndGlyphs" textLength="127" x="614" y="628.2026">-part : Set&lt;UserRole&gt;</text><text fill="#000000" font-family="sans-serif" font-size="11" lengthAdjust="spacingAndGlyphs" textLength="81" x="614" y="641.0073">-email : String</text><line style="stroke: #383838; stroke-width: 1.5;" x1="609" x2="772" y1="647.6016" y2="647.6016"/><!--class UserRole--><rect fill="#F8F8F8" height="105.1563" id="UserRole" style="stroke: #383838; stroke-width: 1.5;" width="96" x="642.5" y="716"/><text fill="#000000" font-family="sans-serif" font-size="12" font-style="italic" lengthAdjust="spacingAndGlyphs" textLength="94" x="643.5" y="732.1387">«enumeration»</text><text fill="#000000" font-family="sans-serif" font-size="12" lengthAdjust="spacingAndGlyphs" textLength="56" x="662.5" y="746.1074">UserRole</text><line style="stroke: #383838; stroke-width: 1.5;" x1="643.5" x2="737.5" y1="753.9375" y2="753.9375"/><text fill="#000000" font-family="sans-serif" font-size="11" lengthAdjust="spacingAndGlyphs" textLength="24" x="648.5" y="768.1479">Pilot</text><text fill="#000000" font-family="sans-serif" font-size="11" lengthAdjust="spacingAndGlyphs" textLength="69" x="648.5" y="780.9526">GroundStaff</text><text fill="#000000" font-family="sans-serif" font-size="11" lengthAdjust="spacingAndGlyphs" textLength="49" x="648.5" y="793.7573">Manager</text><text fill="#000000" font-family="sans-serif" font-size="11" lengthAdjust="spacingAndGlyphs" textLength="77" x="648.5" y="806.562">Administartor</text><line style="stroke: #383838; stroke-width: 1.5;" x1="643.5" x2="737.5" y1="813.1563" y2="813.1563"/><!--class Aircraft--><rect fill="#F8F8F8" height="103.9922" id="Aircraft" style="stroke: #383838; stroke-width: 1.5;" width="219" x="305" y="539"/><text fill="#000000" font-family="sans-serif" font-size="12" lengthAdjust="spacingAndGlyphs" textLength="45" x="392" y="555.1387">Aircraft</text><line style="stroke: #383838; stroke-width: 1.5;" x1="306" x2="523" y1="562.9688" y2="562.9688"/><text fill="#000000" font-family="sans-serif" font-size="11" lengthAdjust="spacingAndGlyphs" textLength="163" x="311" y="577.1792">-aircraftIdentification : String</text><text fill="#000000" font-family="sans-serif" font-size="11" lengthAdjust="spacingAndGlyphs" textLength="152" x="311" y="589.9839">-aircraftType : AircraftType</text><text fill="#000000" font-family="sans-serif" font-size="11" lengthAdjust="spacingAndGlyphs" textLength="135" x="311" y="602.7886">-requiredPilots : Integer</text><text fill="#000000" font-family="sans-serif" font-size="11" lengthAdjust="spacingAndGlyphs" textLength="186" x="311" y="615.5933">-requiredCrewMemeber : Integer</text><text fill="#000000" font-family="sans-serif" font-size="11" lengthAdjust="spacingAndGlyphs" textLength="207" x="311" y="628.3979">-numberOfPassengerSeats : Integer</text><line style="stroke: #383838; stroke-width: 1.5;" x1="306" x2="523" y1="634.9922" y2="634.9922"/><!--class AircraftType--><rect fill="#F8F8F8" height="79.5469" id="AircraftType" style="stroke: #383838; stroke-width: 1.5;" width="96" x="366.5" y="728.5"/><text fill="#000000" font-family="sans-serif" font-size="12" font-style="italic" lengthAdjust="spacingAndGlyphs" textLength="94" x="367.5" y="744.6387">«enumeration»</text><text fill="#000000" font-family="sans-serif" font-size="12" lengthAdjust="spacingAndGlyphs" textLength="74" x="377.5" y="758.6074">AircraftType</text><line style="stroke: #383838; stroke-width: 1.5;" x1="367.5" x2="461.5" y1="766.4375" y2="766.4375"/><text fill="#000000" font-family="sans-serif" font-size="11" lengthAdjust="spacingAndGlyphs" textLength="36" x="372.5" y="780.6479">Airbus</text><text fill="#000000" font-family="sans-serif" font-size="11" lengthAdjust="spacingAndGlyphs" textLength="39" x="372.5" y="793.4526">Boeing</text><line style="stroke: #383838; stroke-width: 1.5;" x1="367.5" x2="461.5" y1="800.0469" y2="800.0469"/><!--class Flight--><rect fill="#F8F8F8" height="155.2109" id="Flight" style="stroke: #383838; stroke-width: 1.5;" width="219" x="468" y="311"/><text fill="#000000" font-family="sans-serif" font-size="12" lengthAdjust="spacingAndGlyphs" textLength="34" x="560.5" y="327.1387">Flight</text><line style="stroke: #383838; stroke-width: 1.5;" x1="469" x2="686" y1="334.9688" y2="334.9688"/><text fill="#000000" font-family="sans-serif" font-size="11" lengthAdjust="spacingAndGlyphs" textLength="123" x="474" y="349.1792">-flightNumber : String</text><text fill="#000000" font-family="sans-serif" font-size="11" lengthAdjust="spacingAndGlyphs" textLength="125" x="474" y="361.9839">-iataCode Abflughafen</text><text fill="#000000" font-family="sans-serif" font-size="11" lengthAdjust="spacingAndGlyphs" textLength="169" x="474" y="374.7886">-utcDepartureTime : Datetime</text><text fill="#000000" font-family="sans-serif" font-size="11" lengthAdjust="spacingAndGlyphs" textLength="148" x="474" y="387.5933">-utcArrivalTime : Datetime</text><text fill="#000000" font-family="sans-serif" font-size="11" lengthAdjust="spacingAndGlyphs" textLength="135" x="474" y="400.3979">-dateOfFlight : Datetime</text><text fill="#000000" font-family="sans-serif" font-size="11" lengthAdjust="spacingAndGlyphs" textLength="67" x="474" y="413.2026">-pilots : List</text><text fill="#000000" font-family="sans-serif" font-size="11" lengthAdjust="spacingAndGlyphs" textLength="103" x="474" y="426.0073">-groundStaff : List</text><text fill="#000000" font-family="sans-serif" font-size="11" lengthAdjust="spacingAndGlyphs" textLength="207" x="474" y="438.812">-numberOfPassengerSeats : Integer</text><text fill="#000000" font-family="sans-serif" font-size="11" lengthAdjust="spacingAndGlyphs" textLength="126" x="474" y="451.6167">-usedAircraft : Aircraft</text><line style="stroke: #383838; stroke-width: 1.5;" x1="469" x2="686" y1="458.2109" y2="458.2109"/><!--class ManageFlights--><rect fill="#F8F8F8" height="103.9922" id="ManageFlights" style="stroke: #383838; stroke-width: 1.5;" width="102" x="337.5" y="14.5"/><text fill="#000000" font-family="sans-serif" font-size="12" font-style="italic" lengthAdjust="spacingAndGlyphs" textLength="90" x="343.5" y="30.6387">ManageFlights</text><line style="stroke: #383838; stroke-width: 1.5;" x1="338.5" x2="438.5" y1="38.4688" y2="38.4688"/><line style="stroke: #383838; stroke-width: 1.5;" x1="338.5" x2="438.5" y1="46.4688" y2="46.4688"/><text fill="#000000" font-family="sans-serif" font-size="11" lengthAdjust="spacingAndGlyphs" textLength="68" x="343.5" y="60.6792">+addFlight()</text><text fill="#000000" font-family="sans-serif" font-size="11" lengthAdjust="spacingAndGlyphs" textLength="68" x="343.5" y="73.4839">+editFlight()</text><text fill="#000000" font-family="sans-serif" font-size="11" lengthAdjust="spacingAndGlyphs" textLength="90" x="343.5" y="86.2886">+removeFlight()</text><text fill="#000000" font-family="sans-serif" font-size="11" lengthAdjust="spacingAndGlyphs" textLength="62" x="343.5" y="99.0933">+addPilot()</text><text fill="#000000" font-family="sans-serif" font-size="11" lengthAdjust="spacingAndGlyphs" textLength="67" x="343.5" y="111.8979">+addCrew()</text><!--class ManageFleet--><rect fill="#F8F8F8" height="91.1875" id="ManageFleet" style="stroke: #383838; stroke-width: 1.5;" width="113" x="475" y="21"/><text fill="#000000" font-family="sans-serif" font-size="12" font-style="italic" lengthAdjust="spacingAndGlyphs" textLength="81" x="491" y="37.1387">ManageFleet</text><line style="stroke: #383838; stroke-width: 1.5;" x1="476" x2="587" y1="44.9688" y2="44.9688"/><line style="stroke: #383838; stroke-width: 1.5;" x1="476" x2="587" y1="52.9688" y2="52.9688"/><text fill="#000000" font-family="sans-serif" font-size="11" lengthAdjust="spacingAndGlyphs" textLength="79" x="481" y="67.1792">+addAircraft()</text><text fill="#000000" font-family="sans-serif" font-size="11" lengthAdjust="spacingAndGlyphs" textLength="79" x="481" y="79.9839">+editAircraft()</text><text fill="#000000" font-family="sans-serif" font-size="11" lengthAdjust="spacingAndGlyphs" textLength="101" x="481" y="92.7886">+removeAircraft()</text><text fill="#000000" font-family="sans-serif" font-size="11" lengthAdjust="spacingAndGlyphs" textLength="77" x="481" y="105.5933">+isAvailable()</text><!--class ManageUser--><rect fill="#F8F8F8" height="91.1875" id="ManageUser" style="stroke: #383838; stroke-width: 1.5;" width="99" x="6" y="21"/><text fill="#000000" font-family="sans-serif" font-size="12" font-style="italic" lengthAdjust="spacingAndGlyphs" textLength="78" x="16.5" y="37.1387">ManageUser</text><line style="stroke: #383838; stroke-width: 1.5;" x1="7" x2="104" y1="44.9688" y2="44.9688"/><line style="stroke: #383838; stroke-width: 1.5;" x1="7" x2="104" y1="52.9688" y2="52.9688"/><text fill="#000000" font-family="sans-serif" font-size="11" lengthAdjust="spacingAndGlyphs" textLength="66" x="12" y="67.1792">+addUSer()</text><text fill="#000000" font-family="sans-serif" font-size="11" lengthAdjust="spacingAndGlyphs" textLength="65" x="12" y="79.9839">+editUser()</text><text fill="#000000" font-family="sans-serif" font-size="11" lengthAdjust="spacingAndGlyphs" textLength="87" x="12" y="92.7886">+removeUser()</text><text fill="#000000" font-family="sans-serif" font-size="11" lengthAdjust="spacingAndGlyphs" textLength="77" x="12" y="105.5933">+isAvailable()</text><!--class FlightData--><rect fill="#F8F8F8" height="116.7969" id="FlightData" style="stroke: #383838; stroke-width: 1.5;" width="162" x="140.5" y="8"/><text fill="#000000" font-family="sans-serif" font-size="12" font-style="italic" lengthAdjust="spacingAndGlyphs" textLength="64" x="189.5" y="24.1387">FlightData</text><line style="stroke: #383838; stroke-width: 1.5;" x1="141.5" x2="301.5" y1="31.9688" y2="31.9688"/><line style="stroke: #383838; stroke-width: 1.5;" x1="141.5" x2="301.5" y1="39.9688" y2="39.9688"/><text fill="#000000" font-family="sans-serif" font-size="11" lengthAdjust="spacingAndGlyphs" textLength="150" x="146.5" y="54.1792">+getAccomplishedFlights()</text><text fill="#000000" font-family="sans-serif" font-size="11" lengthAdjust="spacingAndGlyphs" textLength="115" x="146.5" y="66.9839">+getCurrentFlights()</text><text fill="#000000" font-family="sans-serif" font-size="11" lengthAdjust="spacingAndGlyphs" textLength="108" x="146.5" y="79.7886">+getFutureFlights()</text><text fill="#000000" font-family="sans-serif" font-size="11" lengthAdjust="spacingAndGlyphs" textLength="112" x="146.5" y="92.5933">+getFLightsOfPilot()</text><text fill="#000000" font-family="sans-serif" font-size="11" lengthAdjust="spacingAndGlyphs" textLength="112" x="146.5" y="105.3979">+getFlightsOfStaff()</text><text fill="#000000" font-family="sans-serif" font-size="11" lengthAdjust="spacingAndGlyphs" textLength="126" x="146.5" y="118.2026">+getFlightsOfAircraft()</text><!--class RosterService--><rect fill="#F8F8F8" height="65.5781" id="RosterService" style="stroke: #383838; stroke-width: 1.5;" width="116" x="623.5" y="33.5"/><text fill="#000000" font-family="sans-serif" font-size="12" font-style="italic" lengthAdjust="spacingAndGlyphs" textLength="85" x="639" y="49.6387">RosterService</text><line style="stroke: #383838; stroke-width: 1.5;" x1="624.5" x2="738.5" y1="57.4688" y2="57.4688"/><line style="stroke: #383838; stroke-width: 1.5;" x1="624.5" x2="738.5" y1="65.4688" y2="65.4688"/><text fill="#000000" font-family="sans-serif" font-size="11" lengthAdjust="spacingAndGlyphs" textLength="72" x="629.5" y="79.6792">+getRoster()</text><text fill="#000000" font-family="sans-serif" font-size="11" lengthAdjust="spacingAndGlyphs" textLength="104" x="629.5" y="92.4839">+getFlightDetails()</text><!--class VacationService--><rect fill="#F8F8F8" height="65.5781" id="VacationService" style="stroke: #383838; stroke-width: 1.5;" width="106" x="774.5" y="33.5"/><text fill="#000000" font-family="sans-serif" font-size="12" font-style="italic" lengthAdjust="spacingAndGlyphs" textLength="100" x="777.5" y="49.6387">VacationService</text><line style="stroke: #383838; stroke-width: 1.5;" x1="775.5" x2="879.5" y1="57.4688" y2="57.4688"/><line style="stroke: #383838; stroke-width: 1.5;" x1="775.5" x2="879.5" y1="65.4688" y2="65.4688"/><text fill="#000000" font-family="sans-serif" font-size="11" lengthAdjust="spacingAndGlyphs" textLength="86" x="780.5" y="79.6792">+addVacation()</text><text fill="#000000" font-family="sans-serif" font-size="11" lengthAdjust="spacingAndGlyphs" textLength="54" x="780.5" y="92.4839">+isValid()</text><!--class MessageService--><rect fill="#F8F8F8" height="52.7734" id="MessageService" style="stroke: #383838; stroke-width: 1.5;" width="113" x="916" y="40"/><text fill="#000000" font-family="sans-serif" font-size="12" font-style="italic" lengthAdjust="spacingAndGlyphs" textLength="99" x="923" y="56.1387">MessageService</text><line style="stroke: #383838; stroke-width: 1.5;" x1="917" x2="1028" y1="63.9688" y2="63.9688"/><line style="stroke: #383838; stroke-width: 1.5;" x1="917" x2="1028" y1="71.9688" y2="71.9688"/><text fill="#000000" font-family="sans-serif" font-size="11" lengthAdjust="spacingAndGlyphs" textLength="101" x="922" y="86.1792">+sendFlightData()</text><!--class AdminTasks--><rect fill="#F8F8F8" height="65.5781" id="AdminTasks" style="stroke: #383838; stroke-width: 1.5;" width="93" x="516" y="185"/><text fill="#000000" font-family="sans-serif" font-size="12" lengthAdjust="spacingAndGlyphs" textLength="74" x="525.5" y="201.1387">AdminTasks</text><line style="stroke: #383838; stroke-width: 1.5;" x1="517" x2="608" y1="208.9688" y2="208.9688"/><line style="stroke: #383838; stroke-width: 1.5;" x1="517" x2="608" y1="216.9688" y2="216.9688"/><text fill="#000000" font-family="sans-serif" font-size="11" lengthAdjust="spacingAndGlyphs" textLength="81" x="522" y="231.1792">+createUSer()</text><text fill="#000000" font-family="sans-serif" font-size="11" lengthAdjust="spacingAndGlyphs" textLength="79" x="522" y="243.9839">+deleteUser()</text><!--class ManagerTasks--><rect fill="#F8F8F8" height="39.9688" id="ManagerTasks" style="stroke: #383838; stroke-width: 1.5;" width="97" x="295" y="198"/><text fill="#000000" font-family="sans-serif" font-size="12" lengthAdjust="spacingAndGlyphs" textLength="91" x="298" y="214.1387">ManagerTasks</text><line style="stroke: #383838; stroke-width: 1.5;" x1="296" x2="391" y1="221.9688" y2="221.9688"/><line style="stroke: #383838; stroke-width: 1.5;" x1="296" x2="391" y1="229.9688" y2="229.9688"/><!--class CrewTasks--><rect fill="#F8F8F8" height="39.9688" id="CrewTasks" style="stroke: #383838; stroke-width: 1.5;" width="72" x="775.5" y="198"/><text fill="#000000" font-family="sans-serif" font-size="12" lengthAdjust="spacingAndGlyphs" textLength="66" x="778.5" y="214.1387">CrewTasks</text><line style="stroke: #383838; stroke-width: 1.5;" x1="776.5" x2="846.5" y1="221.9688" y2="221.9688"/><line style="stroke: #383838; stroke-width: 1.5;" x1="776.5" x2="846.5" y1="229.9688" y2="229.9688"/><!--link User to UserRole--><path d="M690.5,656.0866 C690.5,673.9302 690.5,693.1505 690.5,710.5639 " fill="none" id="User-UserRole" style="stroke: #383838; stroke-width: 1.0;"/><polygon fill="#383838" points="690.5,715.9065,694.5,706.9065,690.5,710.9065,686.5,706.9065,690.5,715.9065" style="stroke: #383838; stroke-width: 1.0;"/><!--link Flight to User--><path d="M620.8656,466.2127 C631.0213,484.4121 641.7764,503.6856 651.7174,521.5001 " fill="none" id="Flight-User" style="stroke: #383838; stroke-width: 1.0;"/><polygon fill="#383838" points="654.2263,525.9963,653.3338,516.188,651.7899,521.6301,646.3478,520.0862,654.2263,525.9963" style="stroke: #383838; stroke-width: 1.0;"/><!--link Aircraft to AircraftType--><path d="M414.5,643.2958 C414.5,668.6911 414.5,698.9063 414.5,723.2915 " fill="none" id="Aircraft-AircraftType" style="stroke: #383838; stroke-width: 1.0;"/><polygon fill="#383838" points="414.5,728.4027,418.5,719.4027,414.5,723.4027,410.5,719.4027,414.5,728.4027" style="stroke: #383838; stroke-width: 1.0;"/><!--link Flight to Aircraft--><path d="M514.9461,466.2127 C496.5211,489.1027 476.7284,513.6918 459.6247,534.9402 " fill="none" id="Flight-Aircraft" style="stroke: #383838; stroke-width: 1.0;"/><polygon fill="#383838" points="456.4633,538.8677,465.2225,534.3648,459.5984,534.9727,458.9905,529.3486,456.4633,538.8677" style="stroke: #383838; stroke-width: 1.0;"/><!--link AdminTasks to Flight--><path d="M565.4278,251.2789 C566.7994,266.8695 568.5009,286.2101 570.1896,305.405 " fill="none" id="AdminTasks-Flight" style="stroke: #383838; stroke-width: 1.0;"/><polygon fill="#383838" points="570.6653,310.8119,573.861,301.4959,570.227,305.8311,565.8918,302.1972,570.6653,310.8119" style="stroke: #383838; stroke-width: 1.0;"/><!--link AdminTasks to Aircraft--><path d="M515.9223,244.7764 C492.3525,260.8619 465.6032,283.5396 450.5,311 C412.2684,380.5119 407.9911,474.0606 410.0149,533.4602 " fill="none" id="AdminTasks-Aircraft" style="stroke: #383838; stroke-width: 1.0;"/><polygon fill="#383838" points="410.2146,538.7435,413.8715,529.5987,410.0256,533.7471,405.8773,529.9011,410.2146,538.7435" style="stroke: #383838; stroke-width: 1.0;"/><!--link AdminTasks to User--><path d="M609.0178,234.5412 C642.2102,249.0803 684.3936,273.797 704.5,311 C739.4445,375.6581 728.2929,461.4601 713.2675,520.9649 " fill="none" id="AdminTasks-User" style="stroke: #383838; stroke-width: 1.0;"/><polygon fill="#383838" points="711.992,525.92,718.1092,518.2012,713.2384,521.0778,710.3618,516.207,711.992,525.92" style="stroke: #383838; stroke-width: 1.0;"/><!--link ManagerTasks to Flight--><path d="M371.2618,238.2281 C395.1684,255.6473 431.3131,281.9835 466.6995,307.7671 " fill="none" id="ManagerTasks-Flight" style="stroke: #383838; stroke-width: 1.0;"/><polygon fill="#383838" points="471.0103,310.9081,466.0922,302.3751,466.9693,307.9635,461.3809,308.8407,471.0103,310.9081" style="stroke: #383838; stroke-width: 1.0;"/><!--link ManagerTasks to Aircraft--><path d="M335.7075,238.2607 C320.3136,281.4249 289.7967,385.1118 317.5,466 C326.0526,490.972 341.8518,514.8092 358.2522,534.8449 " fill="none" id="ManagerTasks-Aircraft" style="stroke: #383838; stroke-width: 1.0;"/><polygon fill="#383838" points="361.5384,538.8006,358.864,529.3218,358.3433,534.9547,352.7105,534.434,361.5384,538.8006" style="stroke: #383838; stroke-width: 1.0;"/><!--link ManagerTasks to User--><path d="M347.3803,238.2054 C357.1085,284.0186 386.4841,397.1418 450.5,466 C473.1801,490.3957 544.3747,526.119 603.3776,553.1351 " fill="none" id="ManagerTasks-User" style="stroke: #383838; stroke-width: 1.0;"/><polygon fill="#383838" points="607.9631,555.2285,601.4372,547.852,603.4147,553.1519,598.1147,555.1294,607.9631,555.2285" style="stroke: #383838; stroke-width: 1.0;"/><!--link CrewTasks to Flight--><path d="M783.7382,238.2281 C759.8316,255.6473 723.6869,281.9835 688.3005,307.7671 " fill="none" id="CrewTasks-Flight" style="stroke: #383838; stroke-width: 1.0;"/><polygon fill="#383838" points="683.9897,310.9081,693.6191,308.8407,688.0307,307.9635,688.9078,302.3751,683.9897,310.9081" style="stroke: #383838; stroke-width: 1.0;"/><!--link CrewTasks to User--><path d="M810.3304,238.2753 C807.3044,281.4675 797.1783,385.2051 766.5,466 C759.3523,484.8243 749.3427,503.9778 738.9293,521.4511 " fill="none" id="CrewTasks-User" style="stroke: #383838; stroke-width: 1.0;"/><polygon fill="#383838" points="736.2746,525.8561,744.3461,520.2124,738.8555,521.5737,737.4942,516.083,736.2746,525.8561" style="stroke: #383838; stroke-width: 1.0;"/><!--link ManageFlights to AdminTasks--><path d="M454.8754,124.2924 C478.4598,144.8271 504.19,167.2301 524.577,184.9808 " fill="none" id="ManageFlights-AdminTasks" style="stroke: #383838; stroke-width: 1.0; stroke-dasharray: 7.0,7.0;"/><polygon fill="none" points="450.2517,129.5482,439.7646,111.1356,459.445,118.9895,450.2517,129.5482" style="stroke: #383838; stroke-width: 1.0;"/><!--link ManageFleet to AdminTasks--><path d="M544.9034,132.0038 C548.6346,150.2384 552.5309,169.28 555.7059,184.7966 " fill="none" id="ManageFleet-AdminTasks" style="stroke: #383838; stroke-width: 1.0; stroke-dasharray: 7.0,7.0;"/><polygon fill="none" points="538.0367,133.3634,540.8851,112.3661,551.7525,130.5568,538.0367,133.3634" style="stroke: #383838; stroke-width: 1.0;"/><!--link ManageUser to AdminTasks--><path d="M118.8793,123.111 C120.081,123.7662 121.2883,124.3967 122.5,125 C239.1555,183.0777 282.0296,157.9291 409.5,185 C445.2508,192.5924 485.6687,201.316 515.9812,207.8864 " fill="none" id="ManageUser-AdminTasks" style="stroke: #383838; stroke-width: 1.0; stroke-dasharray: 7.0,7.0;"/><polygon fill="none" points="115.0125,128.9466,102.0198,112.2077,122.6152,117.1908,115.0125,128.9466" style="stroke: #383838; stroke-width: 1.0;"/><!--link FlightData to AdminTasks--><path d="M321.1586,125.2922 C397.506,161.3732 469.8295,187.3053 515.8179,202.8251 " fill="none" id="FlightData-AdminTasks" style="stroke: #383838; stroke-width: 1.0; stroke-dasharray: 7.0,7.0;"/><polygon fill="none" points="317.7135,131.4027,302.7305,116.419,323.7873,118.7888,317.7135,131.4027" style="stroke: #383838; stroke-width: 1.0;"/><!--link RosterService to AdminTasks--><path d="M643.0306,115.4758 C625.213,138.1595 604.5078,164.5194 588.5541,184.8302 " fill="none" id="RosterService-AdminTasks" style="stroke: #383838; stroke-width: 1.0; stroke-dasharray: 7.0,7.0;"/><polygon fill="none" points="637.5259,111.1515,655.3849,99.7473,648.5356,119.7995,637.5259,111.1515" style="stroke: #383838; stroke-width: 1.0;"/><!--link VacationService to AdminTasks--><path d="M775.6645,112.2064 C769.6954,116.7436 763.5699,121.1044 757.5,125 C709.5202,155.7927 649.7713,182.8052 609.1439,199.6709 " fill="none" id="VacationService-AdminTasks" style="stroke: #383838; stroke-width: 1.0; stroke-dasharray: 7.0,7.0;"/><polygon fill="none" points="771.4321,106.6279,791.4198,99.5929,780.1818,117.5569,771.4321,106.6279" style="stroke: #383838; stroke-width: 1.0;"/><!--link MessageService to AdminTasks--><path d="M928.868,105.6015 C919.3266,112.799 908.9436,119.7017 898.5,125 C801.88,174.0172 676.1043,199.9552 609.1835,211.124 " fill="none" id="MessageService-AdminTasks" style="stroke: #383838; stroke-width: 1.0; stroke-dasharray: 7.0,7.0;"/><polygon fill="none" points="924.5078,100.1252,944.4745,93.0307,933.29,111.0281,924.5078,100.1252" style="stroke: #383838; stroke-width: 1.0;"/><!--link ManageFlights to ManagerTasks--><path d="M367.2684,137.9796 C360.7665,159.8695 354.1228,182.2364 349.5186,197.7375 " fill="none" id="ManageFlights-ManagerTasks" style="stroke: #383838; stroke-width: 1.0; stroke-dasharray: 7.0,7.0;"/><polygon fill="none" points="360.6085,135.8167,373.0136,118.6377,374.029,139.803,360.6085,135.8167" style="stroke: #383838; stroke-width: 1.0;"/><!--link ManageFleet to ManagerTasks--><path d="M459.0089,124.917 C427.0328,150.685 391.5477,179.2807 368.4558,197.8893 " fill="none" id="ManageFleet-ManagerTasks" style="stroke: #383838; stroke-width: 1.0; stroke-dasharray: 7.0,7.0;"/><polygon fill="none" points="454.8737,119.2594,474.8389,112.1604,463.6583,130.1604,454.8737,119.2594" style="stroke: #383838; stroke-width: 1.0;"/><!--link ManageUser to ManagerTasks--><path d="M120.7687,123.9046 C121.3457,124.2745 121.9228,124.6397 122.5,125 C177.9394,159.607 248.5001,186.7449 294.7833,202.5589 " fill="none" id="ManageUser-ManagerTasks" style="stroke: #383838; stroke-width: 1.0; stroke-dasharray: 7.0,7.0;"/><polygon fill="none" points="116.4656,129.4336,104.2437,112.1239,124.5925,118.0339,116.4656,129.4336" style="stroke: #383838; stroke-width: 1.0;"/><!--link FlightData to ManagerTasks--><path d="M281.4445,140.9393 C298.2904,161.8586 315.2437,182.9113 327.1633,197.713 " fill="none" id="FlightData-ManagerTasks" style="stroke: #383838; stroke-width: 1.0; stroke-dasharray: 7.0,7.0;"/><polygon fill="none" points="275.7604,145.0415,268.6684,125.0739,286.6644,136.2606,275.7604,145.0415" style="stroke: #383838; stroke-width: 1.0;"/><!--link RosterService to CrewTasks--><path d="M723.1388,115.0252 C747.1843,143.0475 776.1496,176.8032 794.1992,197.8379 " fill="none" id="RosterService-CrewTasks" style="stroke: #383838; stroke-width: 1.0; stroke-dasharray: 7.0,7.0;"/><polygon fill="none" points="717.7408,119.4838,710.0291,99.7473,728.3655,110.367,717.7408,119.4838" style="stroke: #383838; stroke-width: 1.0;"/><!--link VacationService to CrewTasks--><path d="M821.8744,119.7677 C819.022,146.7759 815.7268,177.9772 813.6293,197.8379 " fill="none" id="VacationService-CrewTasks" style="stroke: #383838; stroke-width: 1.0; stroke-dasharray: 7.0,7.0;"/><polygon fill="none" points="814.9268,118.9015,823.9887,99.7473,828.8494,120.3719,814.9268,118.9015" style="stroke: #383838; stroke-width: 1.0;"/><!--link MessageService to CrewTasks--><path d="M929.244,107.2036 C898.1027,136.5074 857.4228,174.7869 832.942,197.8233 " fill="none" id="MessageService-CrewTasks" style="stroke: #383838; stroke-width: 1.0; stroke-dasharray: 7.0,7.0;"/><polygon fill="none" points="924.7246,101.8445,944.087,93.2364,934.3188,112.0402,924.7246,101.8445" style="stroke: #383838; stroke-width: 1.0;"/><!--
@startuml
skinparam monochrome true
skinparam classAttributeIconSize 0
skinparam shadowing false
hide circle

class User {
    - username : String
    - password : String
    - firstname : String
    - lastname : String
    - businessNumber : Integer
    - part : Set<UserRole>
    - email : String
}

class UserRole <<enumeration>> {
    Pilot
    GroundStaff
    Manager
    Administartor
}


class Aircraft {
    - aircraftIdentification : String
    - aircraftType : AircraftType
    - requiredPilots : Integer
    - requiredCrewMemeber : Integer
    - numberOfPassengerSeats : Integer
}

class AircraftType <<enumeration>> {
    Airbus
    Boeing
}

class Flight {
    - flightNumber : String
    - iataCode Abflughafen
    - utcDepartureTime : Datetime
    - utcArrivalTime : Datetime
    - dateOfFlight : Datetime
    - pilots : List
    - groundStaff : List
    - numberOfPassengerSeats : Integer
    - usedAircraft : Aircraft
}

interface ManageFlights {
    + addFlight()
    + editFlight()
    + removeFlight()
    + addPilot()
    + addCrew()
}

interface ManageFleet {
    + addAircraft()
    + editAircraft()
    + removeAircraft()
    + isAvailable()
}

interface ManageUser {
    + addUSer()
    + editUser()
    + removeUser()
    + isAvailable()
}

interface FlightData {
    + getAccomplishedFlights()
    + getCurrentFlights()
    + getFutureFlights()
    + getFLightsOfPilot()
    + getFlightsOfStaff()
    + getFlightsOfAircraft()
}

interface RosterService {
    + getRoster()
    + getFlightDetails()
}

interface VacationService {
    + addVacation()
    + isValid()
}

interface MessageService {
    + sendFlightData()
}


class AdminTasks {
    + createUSer()
    + deleteUser()
}

User - -> UserRole
Flight - -> User
Aircraft - -> AircraftType
Flight - -> Aircraft

AdminTasks - -> Flight
AdminTasks - -> Aircraft
AdminTasks - -> User
ManagerTasks - -> Flight
ManagerTasks - -> Aircraft
ManagerTasks - -> User
CrewTasks - -> Flight
CrewTasks - -> User

ManageFlights <|.. AdminTasks
ManageFleet <|.. AdminTasks
ManageUser <|.. AdminTasks
FlightData <|.. AdminTasks
RosterService <|.. AdminTasks
VacationService <|.. AdminTasks
MessageService <|.. AdminTasks
ManageFlights <|.. ManagerTasks
ManageFleet <|.. ManagerTasks
ManageUser <|.. ManagerTasks
FlightData <|.. ManagerTasks
RosterService <|.. CrewTasks
VacationService <|.. CrewTasks
MessageService <|.. CrewTasks

@enduml

PlantUML version 1.2017.15(Mon Jul 03 18:45:34 CEST 2017)
(GPL source distribution)
Java Runtime: OpenJDK Runtime Environment
JVM: OpenJDK 64-Bit Server VM
Java Version: 11.0.4+11-post-Ubuntu-1ubuntu218.04.3
Operating System: Linux
OS Version: 5.0.0-37-generic
Default Encoding: UTF-8
Language: en
Country: US
--></g></svg>